<svg xmlns="http://www.w3.org/2000/svg" xmlns:xlink="http://www.w3.org/1999/xlink" version="1.1" x="0px" y="0px" viewBox="0 0 100 100" style="enable-background:new 0 0 100 100;" xml:space="preserve">
    <g>
        <path fill="#aaaaaa" d="M79.3,23.5c-0.4-0.4-0.8-0.8-1.2-1.3c-2-2-4-4-5.3-7.8c-0.8-2.3-3.1-3.7-5.6-3.3C64.8,11.5,63,13.6,63,16v43.4   c-1.7-0.7-3.6-1-5.5-1c-8.5,0-15.5,7-15.5,15.5s7,15.5,15.5,15.5c8.4,0,15.3-6.8,15.5-15.2c0-0.1,0-0.1,0-0.2V31.4   c7.1,7.9,9.7,15.8,7.8,23.4c-0.7,2.7,1,5.4,3.7,6.1s5.4-1,6.1-3.7C93.3,45.9,89.4,34.3,79.3,23.5z M57.5,79.3c-3,0-5.5-2.5-5.5-5.5   s2.5-5.5,5.5-5.5s5.5,2.5,5.5,5.5S60.5,79.3,57.5,79.3z"/>
        <path fill="#aaaaaa" d="M32,62H16c-2.8,0-5,2.2-5,5s2.2,5,5,5h16c2.8,0,5-2.2,5-5S34.8,62,32,62z"/>
        <path fill="#aaaaaa" d="M16,32h34c2.8,0,5-2.2,5-5s-2.2-5-5-5H16c-2.8,0-5,2.2-5,5S13.2,32,16,32z"/>
        <path fill="#aaaaaa" d="M16,52h34c2.8,0,5-2.2,5-5s-2.2-5-5-5H16c-2.8,0-5,2.2-5,5S13.2,52,16,52z"/>
    </g>
</svg>